<?xml version="1.0" encoding="UTF-8" standalone="no"?><svg width="95" height="93" viewBox="0 0 95 93" fill="none" xmlns="http://www.w3.org/2000/svg">
<g clip-path="url(#clip0_5_533)" filter="url(#filter0_d_5_533)">
<path d="M69.0878 7.64671C63.4753 5.76866 58.3857 4.4087 53.8188 3.56682C48.8414 2.64862 43.1645 2.13863 36.7878 2.03686C33.6706 1.98482 30.2899 2.33869 27.099 2.5746C25.2455 2.71107 22.2778 3.25227 18.1964 4.19823C15.4804 4.82964 12.9427 5.48534 10.5831 6.16532C10.2165 6.27171 9.88351 6.40817 9.58404 6.57469C9.47304 6.63714 9.39945 6.72388 9.36332 6.83489C9.26263 7.12862 9.24069 7.42583 9.29749 7.7265C10.7096 14.9334 12.9311 21.932 15.9619 28.7226C23.5622 45.736 34.7961 60.5788 49.6637 73.251C53.66 76.6555 57.3053 79.5292 60.5994 81.8722C61.0615 82.2007 61.5701 82.2391 62.1251 81.9866C64.619 80.8591 66.6095 79.7524 68.7431 77.9553C69.7784 77.0857 70.7878 76.2091 71.7713 75.3256L72.3484 75.3811C72.5136 75.3973 72.5381 75.4586 72.422 75.565C72.1044 75.868 71.9043 76.2727 71.8217 76.7793C71.7933 76.9597 71.7043 77.1111 71.5545 77.2337C70.589 78.0132 69.6287 78.8388 68.6734 79.7108C67.7724 80.5365 66.7115 81.2754 65.4903 81.9277C63.9026 82.7761 62.2981 83.5109 60.6769 84.1304C60.1553 84.3323 59.6675 84.2775 59.2131 83.9677C56.1113 81.855 52.9979 79.6865 50.0703 77.2094C46.829 74.4617 43.5917 71.7835 40.73 68.8415C39.7309 67.8146 38.6918 66.7819 37.6127 65.7434C35.5086 63.7174 33.5079 61.5792 31.6105 59.3287C31.045 58.6592 30.3596 58.1595 29.8872 57.3998C29.4121 56.6319 28.8378 55.864 28.1639 55.0962C25.7346 52.33 23.8114 49.8055 22.394 47.5227C21.4931 46.068 20.8877 45.1023 20.5779 44.6259C18.8094 41.9128 17.0075 38.9304 15.172 35.6786C14.6247 34.7071 13.9637 33.3391 13.1893 31.5744C12.5774 30.1844 11.9088 28.8163 11.1834 27.4702C11.1317 27.3731 11.0982 27.2725 11.0827 27.1684C11.0672 27.0504 11.0298 26.9394 10.9704 26.8353C10.2733 25.6188 9.8009 24.5965 9.55306 23.7685C8.91799 21.6384 8.23514 19.6574 7.50454 17.8256C7.0476 16.6808 6.63842 15.5069 6.27699 14.3043C5.90782 13.0761 5.59028 11.8608 5.32438 10.658C4.90357 8.77306 4.46727 6.95863 4.01549 5.21473C3.98451 5.09909 4 4.98923 4.06196 4.88515C4.24009 4.57754 4.56279 4.35435 5.03007 4.21557C9.34653 2.92962 13.3016 1.98251 16.8952 1.37423C18.3125 1.1337 19.8331 0.948665 21.4569 0.819147C22.9594 0.696563 24.4671 0.565884 25.9799 0.427113C30.6165 0.00154657 34.9149 -0.106 38.8751 0.10447C42.8715 0.316097 47.0769 0.628333 51.0616 1.37423C52.1046 1.56851 53.1927 1.75007 54.3261 1.91891C58.6322 2.55379 62.6828 4.11844 66.8186 5.25636C68.1816 5.63105 69.4324 6.10634 70.7414 6.54347C71.2679 6.72156 71.7675 6.92741 72.24 7.161C74.6435 8.35215 77.0663 9.44726 79.5085 10.4464C79.9396 10.6222 80.3385 10.9321 80.7051 11.3762C80.8496 11.5496 80.8483 11.7289 80.7012 11.9139C80.6508 11.9757 80.5793 12.021 80.4975 12.0429C80.4156 12.0649 80.3281 12.0622 80.2481 12.0353C78.7817 11.5358 77.1941 10.9876 75.485 10.3909C74.3272 9.98848 73.3397 9.38138 72.2786 8.802C71.2744 8.25849 70.2108 7.87337 69.0878 7.64671Z" fill="#4F4F4F"/>
<path d="M69.0877 7.64673C69.4285 7.8202 69.5537 8.02952 69.4634 8.2747C69.4218 8.3856 69.3372 8.47951 69.2249 8.53934C69.1126 8.59917 68.9802 8.62099 68.8515 8.6008C67.5969 8.39263 66.4106 8.107 65.2927 7.74388C64.3401 7.43396 63.5785 7.22464 63.008 7.11593C62.2309 6.96791 61.4448 6.82683 60.6498 6.69268C59.0723 6.45215 57.4885 6.18964 55.8982 5.90516C54.0808 5.57904 52.488 5.37204 51.1197 5.28415C46.2172 4.97423 41.5328 4.99158 37.0667 5.33619C30.3932 5.85196 24.0992 7.39001 18.1847 9.95034C18.0687 10.0004 17.9726 10.081 17.9096 10.1816C17.8466 10.2822 17.8196 10.3977 17.8322 10.5124C17.9433 11.5254 18.1227 12.4598 18.3706 13.3155C18.8352 14.9114 18.8043 16.5559 19.4587 18.1031C19.4886 18.1748 19.5384 18.2384 19.6032 18.2881C19.6681 18.3378 19.7461 18.3718 19.8297 18.3871C19.9133 18.4024 19.9999 18.3983 20.0814 18.3754C20.1628 18.3524 20.2364 18.3112 20.2951 18.2558C21.6776 16.9583 23.3428 16.1777 25.0853 15.3763C27.0087 14.4974 29.0313 13.8915 31.1535 13.5584L31.7265 13.6C31.8504 13.6093 31.9408 13.6625 31.9976 13.7596C32.1706 14.0487 32.3319 14.3355 32.4816 14.62C32.8122 15.2491 33.3181 15.6238 33.9997 15.7441C34.3611 15.8088 34.738 15.7984 35.1304 15.7128C35.8688 15.5532 36.4819 15.8678 36.9698 16.6565C36.9839 16.6803 36.9906 16.707 36.9891 16.7339C36.9876 16.7608 36.978 16.7869 36.9613 16.8093C36.9447 16.8317 36.9215 16.8496 36.8944 16.8612C36.8672 16.8728 36.8371 16.8776 36.8072 16.8751C35.3331 16.7409 33.9867 16.919 32.7683 17.4093C28.2659 18.1448 24.227 19.7477 20.6514 22.2177C20.53 22.4838 20.4023 22.6433 20.268 22.6965C20.1492 22.7428 20.0705 22.7104 20.0318 22.5994C19.8201 22.0073 19.8033 21.4094 19.9815 20.8057C20.1725 20.1697 20.0306 19.5638 19.5555 18.9879C19.4548 18.8676 19.3786 18.738 19.327 18.5993C19.2651 18.4351 19.136 18.3541 18.9397 18.3564C18.7462 18.3564 18.5938 18.2859 18.4829 18.1448C18.266 17.8673 17.973 17.688 17.6038 17.607C17.4747 17.577 17.3766 17.5099 17.3095 17.4058C16.8242 16.6403 16.5634 15.8805 16.5273 15.1265C16.4833 14.2315 16.3762 13.3687 16.2058 12.5384C16.1413 12.2239 16.0058 11.9464 15.7992 11.7058C15.7192 11.6109 15.6921 11.5058 15.7179 11.3901C16.0148 10.1504 16.7041 9.05531 17.7858 8.10469C18.1085 7.82021 18.5461 7.61783 19.0986 7.49756C19.6536 7.37729 20.2151 7.24315 20.7831 7.09512C21.2323 6.97716 21.5615 6.69268 22.0107 6.54697C22.5605 6.37119 23.0485 6.10059 23.4744 5.73516C23.557 5.66578 23.6525 5.61952 23.761 5.59639C24.0139 5.5455 24.2192 5.40789 24.3767 5.18354C24.3867 5.16885 24.392 5.15197 24.392 5.13475C24.392 5.11754 24.3867 5.10066 24.3768 5.08596C24.3667 5.07126 24.3524 5.05932 24.3353 5.05144C24.3182 5.04356 24.299 5.04005 24.2799 5.0413C23.0846 5.12919 21.9564 5.30959 20.8954 5.58251C20.5778 5.66346 20.2564 5.72707 19.9311 5.77333C19.1141 5.89474 18.3357 6.0127 17.5457 6.24168C16.4692 6.55738 15.3772 6.56779 14.3394 6.99104C13.539 7.31715 12.762 7.64789 12.0081 7.98326C11.8014 8.07541 11.6335 8.22459 11.5295 8.40849C11.4255 8.5923 11.391 8.80096 11.4311 9.00324C11.617 9.98156 11.7332 10.9391 12.1359 11.8619C12.5593 12.8241 12.9104 13.792 13.1893 14.7658C13.4397 15.6399 13.7985 16.4796 14.2658 17.2845C14.5136 17.7146 14.5717 18.1668 14.44 18.6409C14.3678 18.8954 14.36 19.1671 14.4168 19.4562C14.6956 20.8763 15.1151 22.0755 15.6753 23.0538C16.3104 24.1675 16.5118 25.3366 17.2979 26.3913C17.7432 26.9846 17.7161 27.6264 17.964 28.2647C18.4906 29.6293 19.4496 31.4183 20.8411 33.6317C21.0967 34.0376 20.9457 34.3707 21.1549 34.787C21.8105 36.0869 22.4766 37.2907 23.153 38.3985C23.9623 39.7238 24.4464 41.2155 25.3564 42.4888C26.1928 43.6591 27.0383 44.8514 27.8929 46.0656C28.2439 46.5652 28.5602 47.0764 28.8416 47.599C29.1333 48.138 29.4289 48.6642 29.7284 49.1776C30.1698 49.9385 30.712 50.6648 31.3548 51.3563C32.6844 52.7857 33.948 54.2705 35.1459 55.8109C35.3524 56.0745 35.5396 56.337 35.7074 56.5984C35.883 56.8713 36.0959 57.113 36.3463 57.3235C36.3746 57.3467 36.4095 57.3624 36.4471 57.3691C36.4846 57.3757 36.5235 57.3729 36.5594 57.3611C36.5954 57.3493 36.627 57.3288 36.6509 57.302C36.6748 57.2752 36.69 57.243 36.6949 57.209C36.966 55.1413 37.3184 53.1407 37.7521 51.2071C37.8812 50.6266 38.1031 49.9258 38.4181 49.1048C38.5756 48.6931 38.7886 48.3623 39.0571 48.1126C39.3978 47.791 39.7064 47.4233 39.9826 47.0093C40.0962 46.8428 40.1762 46.6681 40.2226 46.4855C40.2717 46.2958 40.3789 46.1246 40.5441 45.9719C40.6216 45.898 40.7131 45.8459 40.819 45.8158C40.9326 45.7835 41.0333 45.7303 41.121 45.6563C41.2189 45.5709 41.3474 45.5183 41.485 45.5071C42.2518 45.4516 42.6029 45.61 42.5383 45.9824C42.5203 46.0934 42.4635 46.1848 42.368 46.2565C42.1563 46.4184 42.1046 46.6045 42.2131 46.815C40.5944 49.4378 39.5024 52.2537 38.937 55.2627C38.6853 56.5984 39.9051 58.1631 40.8693 59.0651C41.5664 59.7127 41.7948 59.6005 41.5548 58.7286C40.4898 54.8256 41.4076 51.1932 42.914 47.5332C43.1515 47.4846 43.2858 47.384 43.3167 47.2313C43.3528 47.0532 43.451 47.0209 43.611 47.1342C43.7892 47.266 43.8834 47.4268 43.8937 47.6165C43.8989 47.7367 43.9454 47.8419 44.0331 47.9321C44.4397 48.3588 44.2848 49.4725 44.2848 50.0415C44.2848 50.5364 44.2009 50.9886 44.0331 51.398C43.6304 52.3855 43.3555 53.3882 43.2083 54.4058C43.1926 54.5131 43.2219 54.6219 43.2906 54.711C43.3593 54.8001 43.4624 54.8632 43.5801 54.888C44.0266 54.9783 44.3197 54.8348 44.4591 54.4579C44.4953 54.363 44.5559 54.2832 44.6411 54.2185C44.9716 53.9687 45.3252 53.8392 45.7021 53.83C45.7654 53.8283 45.8284 53.8395 45.8861 53.8626C45.944 53.8859 45.9953 53.9203 46.0362 53.9637C46.0771 54.007 46.1065 54.058 46.1225 54.1129C46.1384 54.1678 46.1403 54.2253 46.1281 54.2809C46.0584 54.5978 46.0984 54.8822 46.2481 55.1344C45.4427 57.6739 45.0296 60.2921 45.009 62.9889C45.0038 63.6041 45.2297 64.1823 45.6866 64.7235C46.0894 65.1976 46.3966 65.5318 46.6083 65.7261C46.4663 66.531 46.4792 67.285 46.647 67.9881C46.6754 68.1015 46.7387 68.1963 46.8367 68.2726C47.3053 68.6438 47.6268 69.1052 48.0682 69.4937C49.5294 70.7843 50.9028 72.0079 52.1884 73.1643C53.1333 74.0154 54.4164 75.0272 56.0376 76.1999C57.6563 77.3702 59.204 78.6088 60.6807 79.9155C61.1106 80.2936 61.7727 80.3318 62.2219 79.9641C62.6014 79.6518 63.0042 79.3801 63.4301 79.1488C63.8225 78.936 64.1969 78.5521 64.5531 77.997C64.8191 77.5853 65.1275 77.1852 65.4786 76.7966C65.8478 76.5954 66.2363 76.3872 66.6443 76.1721C67.065 75.9524 67.4407 75.7292 67.7711 75.5026C71.4138 72.9931 74.4963 70.0419 77.0184 66.6489C77.4935 66.0892 77.9569 65.755 78.4087 65.6463C78.5481 65.6116 78.6307 65.659 78.6565 65.7886C78.7624 66.3714 78.6629 66.8236 78.3583 67.145C78.1621 67.3532 77.9905 67.581 77.8433 67.8285C76.2117 70.5508 74.1877 73.0498 71.7713 75.3256C70.7878 76.2091 69.7783 77.0857 68.7431 77.9553C66.6094 79.7524 64.619 80.8591 62.1251 81.9866C61.5701 82.2392 61.0615 82.2007 60.5994 81.8722C57.3053 79.5292 53.66 76.6556 49.6636 73.251C34.7961 60.5789 23.5622 45.7361 15.9619 28.7227C12.9311 21.9321 10.7096 14.9334 9.29745 7.72653C9.24065 7.42586 9.26259 7.12865 9.36328 6.83492C9.39942 6.7239 9.473 6.63717 9.58401 6.57472C9.88347 6.40819 10.2165 6.27174 10.5831 6.16535C12.9427 5.48536 15.4804 4.82967 18.1963 4.19826C22.2778 3.2523 25.2454 2.71109 27.099 2.57463C30.2899 2.33872 33.6705 1.98485 36.7878 2.03689C43.1644 2.13866 48.8414 2.64864 53.8188 3.56685C58.3857 4.40873 63.4753 5.76869 69.0877 7.64673Z" fill="#8D868E"/>
<path d="M20.6514 22.2177C20.6514 22.782 20.7573 23.2342 20.969 23.5742C21.0129 23.6445 21.0757 23.7038 21.1515 23.7469C21.2273 23.79 21.3138 23.8155 21.4032 23.821C21.4925 23.8265 21.5817 23.8119 21.6628 23.7785C21.7439 23.7451 21.8142 23.6939 21.8674 23.6297C22.3476 23.0504 22.7774 22.5542 23.428 22.1033C25.9038 20.3778 28.8055 19.1752 32.1332 18.4952C34.9369 17.9239 37.7612 17.4926 40.6061 17.2011C40.6551 17.1965 40.6784 17.1722 40.6758 17.1282L40.6681 17.0242C40.6654 16.964 40.6307 16.9363 40.5635 16.9409L32.7684 17.4093C33.9868 16.919 35.3331 16.7409 36.8073 16.875C36.8372 16.8776 36.8673 16.8727 36.8945 16.8612C36.9216 16.8496 36.9448 16.8316 36.9614 16.8092C36.9781 16.7868 36.9877 16.7608 36.9892 16.7339C36.9907 16.707 36.984 16.6803 36.9699 16.6565C36.482 15.8678 35.8688 15.5532 35.1305 15.7128C34.7381 15.7984 34.3612 15.8088 33.9998 15.744C33.3182 15.6237 32.8122 15.2491 32.4817 14.62C32.332 14.3355 32.1706 14.0487 31.9977 13.7596C31.9409 13.6624 31.8505 13.6092 31.7266 13.6L31.1535 13.5584C31.4117 13.4427 31.6182 13.3004 31.7731 13.1317C31.8583 13.0414 31.8364 12.9813 31.7073 12.9512L29.3103 12.3927L27.9936 12.0527C27.9259 12.0348 27.8637 12.0032 27.8117 11.9603C27.7598 11.9175 27.7195 11.8645 27.6941 11.8055C27.6686 11.7465 27.6587 11.683 27.665 11.6201C27.6712 11.557 27.6935 11.4962 27.7303 11.4421C27.8749 11.2293 28.1434 11.0905 28.5357 11.0258C29.0521 10.9425 29.5736 10.8754 30.1002 10.8246C34.8401 10.0567 39.6109 9.81732 44.4127 10.1064C46.0004 10.2001 47.5377 10.4672 49.11 10.6719C50.2252 10.8176 51.3637 11.035 52.5254 11.3241C55.675 12.1059 58.7561 13.0576 61.7689 14.1794C61.9961 14.4408 62.3317 14.6165 62.7757 14.7067C62.9358 14.7414 62.9875 14.8282 62.9306 14.9669C62.892 15.064 62.8119 15.1022 62.6905 15.0814C62.5202 15.0513 62.4479 15.1126 62.4737 15.2653C62.4995 15.4318 62.4272 15.5301 62.2568 15.5601C61.1106 15.7683 59.9373 15.6446 58.7368 15.1889C57.7093 14.8004 56.696 14.3956 55.697 13.9746C55.2245 13.7781 54.9625 13.9111 54.9109 14.3736C54.8567 14.8732 54.6578 15.3381 54.3145 15.7683C54.2425 15.8598 54.2121 15.9725 54.2293 16.084L54.4655 17.496C54.4836 17.6047 54.5417 17.6937 54.6397 17.7631C55.3962 18.2928 55.9926 18.6317 56.4288 18.7797C57.335 19.0919 58.2256 19.4365 59.1008 19.8135C59.9488 20.1813 60.6343 20.771 61.3739 21.3123C62.4931 22.131 63.6626 22.7034 64.8979 23.3349C65.5071 23.6448 66.048 24.0252 66.5204 24.4762C67.5143 25.4175 68.4837 26.3924 69.4285 27.4008C69.5164 27.4933 69.559 27.6009 69.5564 27.7235C69.5538 27.8506 69.6209 27.9258 69.7578 27.949C69.8817 27.9721 69.9862 28.0253 70.0714 28.1086C70.265 28.2959 70.4651 28.4705 70.6716 28.6324C70.873 28.7897 71.0446 28.9632 71.1867 29.1528C71.7598 29.9277 72.4891 30.6365 73.3746 31.2795C73.4598 31.3419 73.5269 31.4183 73.576 31.5085C73.7283 31.7976 73.9993 31.8947 74.3892 31.7999C74.513 31.7675 74.6047 31.7016 74.6641 31.6022C74.8345 31.3246 75.0901 31.1384 75.4309 31.0436C75.4806 31.0294 75.5332 31.0254 75.585 31.0317C75.6368 31.038 75.6862 31.0546 75.73 31.0801C75.7737 31.1057 75.8106 31.1397 75.8379 31.1795C75.8651 31.2194 75.8822 31.2642 75.8878 31.3107C75.9472 31.8149 76.1821 32.2405 76.5926 32.5874C76.701 32.68 76.7488 32.7932 76.7358 32.9274C76.7126 33.1448 76.6119 33.3518 76.4339 33.5484C75.7368 33.8352 74.9817 33.8768 74.1685 33.6733C73.4675 33.2778 72.7163 32.91 72.116 32.3932C70.2495 30.788 68.0474 28.8394 65.5097 26.5474C62.9048 24.1998 60.0289 22.3091 56.8819 20.8751C55.3278 20.1674 53.6626 19.8274 51.8865 19.8551C50.242 19.8806 48.6284 19.8898 47.0459 19.8829C46.6742 19.8806 46.4858 20.0517 46.4806 20.3963C46.4806 20.5189 46.5412 20.608 46.6626 20.6635L49.5824 21.9852C49.7087 22.0427 49.8135 22.1319 49.8841 22.242C49.9546 22.352 49.9878 22.478 49.9796 22.6047C49.9714 22.7314 49.9221 22.8531 49.8378 22.9551C49.7535 23.0571 49.6378 23.1348 49.505 23.1787C48.2038 23.602 46.2986 24.1362 45.6558 25.3123C45.6359 25.3471 45.6269 25.386 45.6295 25.425C45.6321 25.4639 45.6463 25.5016 45.6707 25.5344C45.695 25.5671 45.7286 25.5936 45.7682 25.6112C45.8077 25.6289 45.8517 25.6371 45.8958 25.6349C49.6159 25.4476 52.9217 26.3739 55.8131 28.4139C57.1324 29.3436 58.4567 30.5856 59.7863 32.1399C60.158 32.5053 60.4962 32.8569 60.8008 33.1945C60.8987 33.304 60.9512 33.4402 60.949 33.5796C60.9469 33.7191 60.8903 33.8529 60.7892 33.9578C60.7634 33.9855 60.6988 34.0203 60.5956 34.0619C60.5311 34.0896 60.46 34.1058 60.3826 34.1104C58.7355 34.1822 57.4511 34.8297 56.5295 36.0532C56.3463 36.2961 56.4108 36.3735 56.7231 36.2857C58.5122 35.7861 60.0185 35.3594 61.8928 35.8035C62.1988 35.8763 62.5511 36.1365 62.7138 36.3759C62.756 36.4371 62.781 36.5067 62.7865 36.5785C62.7921 36.6504 62.7781 36.7223 62.7457 36.7882C62.7133 36.8541 62.6635 36.9119 62.6006 36.9568C62.5377 37.0016 62.4636 37.032 62.3846 37.0454C61.9148 37.1264 61.4643 37.2952 61.0332 37.552C60.3439 38.1464 60.016 38.9085 60.0496 39.8383C60.0754 40.5275 59.8972 41.1346 59.5152 41.6596C58.9291 42.4621 58.6348 42.867 58.6322 42.8738C57.6047 44.8976 57.2846 47.0405 57.6719 49.3024C57.6925 49.4181 57.7674 49.4898 57.8965 49.5176C58.1753 49.5731 58.458 49.5522 58.7445 49.4551C59.4287 49.3256 60.0109 49.3892 60.491 49.646C60.5437 49.6745 60.5893 49.7122 60.6252 49.7569C60.6612 49.8017 60.6866 49.8524 60.7001 49.9061C60.775 50.2045 60.7879 50.4612 60.7389 50.6763C60.1929 53.1014 59.5849 55.6339 59.4106 58.1179C59.093 62.6731 59.3099 67.034 60.6924 71.3706C61.3842 73.5377 62.3976 75.4979 63.7323 77.251C63.8109 77.3542 63.9315 77.4258 64.0683 77.4504C64.205 77.4751 64.347 77.4508 64.4641 77.3829L65.4787 76.7966C65.1276 77.1851 64.8192 77.5853 64.5532 77.997C64.197 78.5521 63.8226 78.936 63.4302 79.1487C63.0043 79.38 62.6015 79.6518 62.222 79.9641C61.7728 80.3318 61.1106 80.2936 60.6808 79.9154C59.2041 78.6087 57.6564 77.3702 56.0377 76.1999C54.4165 75.0272 53.1334 74.0154 52.1885 73.1642C50.9029 72.0078 49.5295 70.7843 48.0683 69.4937C47.6269 69.1052 47.3054 68.6438 46.8368 68.2726C46.7388 68.1962 46.6755 68.1014 46.6471 67.9881C46.4793 67.2849 46.4663 66.531 46.6084 65.7261C46.9156 66.0892 47.2512 66.3343 47.6152 66.4616C47.7985 66.5263 47.8656 66.4731 47.8165 66.3019C47.4835 65.1386 47.2151 63.9833 47.0111 62.8362C46.709 61.1466 46.7439 59.2698 46.9724 57.5073C47.1143 56.3972 47.1853 55.3333 47.1853 54.3156C47.1853 53.8437 47.0459 53.8079 46.7671 54.208C46.62 54.4208 46.447 54.7296 46.2482 55.1343C46.0985 54.8822 46.0585 54.5978 46.1282 54.2809C46.1404 54.2252 46.1385 54.1678 46.1226 54.1129C46.1066 54.0579 46.0772 54.0069 46.0363 53.9636C45.9953 53.9203 45.9441 53.8858 45.8862 53.8626C45.8285 53.8395 45.7655 53.8283 45.7022 53.8299C45.3253 53.8392 44.9717 53.9687 44.6411 54.2185C44.556 54.2832 44.4954 54.363 44.4591 54.4579C44.3197 54.8348 44.0267 54.9782 43.5802 54.888C43.4625 54.8632 43.3594 54.8001 43.2907 54.711C43.222 54.6219 43.1927 54.5131 43.2084 54.4058C43.3556 53.3882 43.6305 52.3855 44.0332 51.3979C44.201 50.9885 44.2849 50.5363 44.2849 50.0415C44.2849 49.4724 44.4398 48.3588 44.0332 47.9321C43.9454 47.8419 43.899 47.7366 43.8938 47.6164C43.8835 47.4267 43.7893 47.266 43.6111 47.1341C43.4511 47.0208 43.3529 47.0532 43.3168 47.2313C43.2859 47.384 43.1516 47.4846 42.9141 47.5331L43.2161 46.2946C43.2496 46.1628 43.1916 46.1015 43.0418 46.1107C42.9024 46.1176 42.785 46.1674 42.6895 46.2598C42.6043 46.3408 42.5333 46.4356 42.4765 46.5444C42.4145 46.6623 42.3268 46.7525 42.2132 46.815C42.1047 46.6045 42.1564 46.4183 42.3681 46.2564C42.4636 46.1847 42.5204 46.0934 42.5384 45.9824C42.603 45.61 42.2519 45.4515 41.4851 45.507C41.3474 45.5182 41.219 45.5709 41.1211 45.6563C41.0333 45.7302 40.9327 45.7834 40.8191 45.8158C40.7132 45.8459 40.6216 45.8979 40.5442 45.9719C40.379 46.1246 40.2718 46.2957 40.2227 46.4854C40.1763 46.6681 40.0963 46.8428 39.9827 47.0092C39.7064 47.4233 39.3979 47.791 39.0572 48.1125C38.7887 48.3623 38.5757 48.6931 38.4182 49.1047C38.1032 49.9258 37.8812 50.6266 37.7521 51.2071C37.3185 53.1407 36.966 55.1413 36.695 57.209C36.6901 57.243 36.6749 57.2752 36.651 57.302C36.6271 57.3288 36.5955 57.3492 36.5595 57.3611C36.5236 57.3729 36.4847 57.3756 36.4471 57.369C36.4095 57.3624 36.3747 57.3466 36.3464 57.3234C36.096 57.113 35.8831 56.8713 35.7075 56.5984C35.5397 56.337 35.3525 56.0745 35.1459 55.8108C33.9481 54.2704 32.6844 52.7856 31.3549 51.3563C30.7121 50.6647 30.1699 49.9385 29.7285 49.1776C29.429 48.6641 29.1334 48.1379 28.8416 47.599C28.5603 47.0763 28.244 46.5652 27.893 46.0656C27.0384 44.8514 26.1929 43.6591 25.3564 42.4888C24.4464 41.2155 23.9624 39.7238 23.1531 38.3985C22.4766 37.2906 21.8106 36.0868 21.1549 34.787C20.9457 34.3706 21.0968 34.0376 20.8412 33.6317C19.4497 31.4183 18.4907 29.6293 17.9641 28.2647C17.7162 27.6264 17.7433 26.9845 17.298 26.3913C16.5119 25.3366 16.3105 24.1674 15.6754 23.0538C15.1152 22.0755 14.6957 20.8762 14.4168 19.4562C14.3601 19.1671 14.3678 18.8953 14.4401 18.6409C14.5717 18.1668 14.5137 17.7146 14.2658 17.2844C13.7986 16.4795 13.4398 15.6399 13.1894 14.7657C12.9105 13.792 12.5594 12.824 12.136 11.8619C11.7333 10.9391 11.6171 9.98152 11.4312 9.0032C11.3911 8.80092 11.4256 8.59226 11.5296 8.40845C11.6336 8.22455 11.8015 8.07537 12.0082 7.98322C12.7621 7.64785 13.5391 7.31711 14.3395 6.991C15.3773 6.56775 16.4693 6.55734 17.5458 6.24163C18.3358 6.01266 19.1142 5.8947 19.9312 5.77328C20.2565 5.72703 20.5779 5.66342 20.8955 5.58247C21.9565 5.30955 23.0847 5.12915 24.28 5.04126C24.2991 5.04001 24.3183 5.04352 24.3354 5.0514C24.3525 5.05928 24.3668 5.07122 24.3768 5.08592C24.3868 5.10062 24.3921 5.1175 24.3921 5.13471C24.3921 5.15193 24.3868 5.16881 24.3767 5.1835C24.2193 5.40785 24.014 5.54546 23.761 5.59635C23.6526 5.61948 23.5571 5.66574 23.4745 5.73512C23.0486 6.10055 22.5606 6.37115 22.0107 6.54693C21.5615 6.69264 21.2324 6.97712 20.7832 7.09508C20.2152 7.24311 19.6537 7.37725 19.0987 7.49752C18.5462 7.61779 18.1086 7.82017 17.7859 8.10465C16.7042 9.05527 16.0149 10.1504 15.718 11.3901C15.6922 11.5057 15.7193 11.6109 15.7993 11.7058C16.0058 11.9463 16.1414 12.2239 16.2059 12.5384C16.3763 13.3687 16.4834 14.2314 16.5274 15.1265C16.5635 15.8804 16.8242 16.6403 17.3096 17.4058C17.3767 17.5099 17.4748 17.5769 17.6039 17.607C17.9731 17.688 18.2661 17.8672 18.483 18.1448C18.5939 18.2859 18.7462 18.3564 18.9398 18.3564C19.1361 18.3541 19.2651 18.435 19.3271 18.5992C19.3787 18.738 19.4549 18.8675 19.5556 18.9878C20.0306 19.5637 20.1726 20.1697 19.9816 20.8057C19.8034 21.4094 19.8202 22.0072 20.0319 22.5994C20.0706 22.7104 20.1493 22.7427 20.2681 22.6965C20.4024 22.6433 20.5301 22.4837 20.6514 22.2177ZM31.1574 23.8378C31.3639 23.6945 31.502 23.5152 31.5717 23.3001C31.6931 22.9255 31.5627 22.8329 31.1806 23.0226C28.2814 24.4635 25.8509 26.3542 23.8889 28.6948C23.4164 29.2569 22.7619 31.0367 24.1444 31.0922C24.3225 31.099 24.4973 31.048 24.6367 30.9486C24.7762 30.8492 24.8709 30.708 24.9034 30.551C25.0144 30.0028 25.2532 29.5136 25.6198 29.0835C26.7093 27.816 27.9858 26.5913 29.4497 25.4094C29.4728 25.391 29.4845 25.369 29.4845 25.3436C29.4871 25.3112 29.4948 25.28 29.5077 25.2499C29.5413 25.1689 29.5994 25.1019 29.6819 25.0487C30.2667 24.6775 30.6346 24.2021 31.1574 23.8378ZM35.572 26.5197C35.0273 26.6445 34.4851 26.6445 33.9455 26.5197C33.8241 26.4896 33.7441 26.4213 33.7055 26.3149C33.6719 26.2224 33.6499 26.131 33.6396 26.0409C33.5724 25.5644 33.3401 25.4869 32.9425 25.8084C31.2774 27.1545 29.8356 28.7192 28.617 30.5024C28.5861 30.5463 28.5473 30.5868 28.5009 30.6238C28.4234 30.6886 28.4415 30.7661 28.5551 30.8562C28.5935 30.8856 28.6424 30.9015 28.6924 30.9008C28.7424 30.9003 28.79 30.8831 28.8262 30.8528C29.9002 29.9738 31.0709 29.1262 32.3385 28.3098C32.8522 27.979 33.3182 27.7686 33.7364 27.6784C34.2089 27.5766 34.2992 27.7003 34.0075 28.0496C33.1813 29.0418 32.3772 30.0306 31.595 31.0158C29.7362 33.3472 29.0507 36.2059 28.3305 39.0646C27.9781 40.4627 28.164 41.4376 29.5309 42.2078C29.8975 42.4159 30.0215 42.3327 29.9027 41.958C29.5774 40.9357 29.5116 39.925 29.7052 38.9258C30.3119 35.7919 31.4529 33.0732 33.1284 30.7695C34.6877 28.6209 37.068 27.1869 40.2692 26.4676C40.3256 26.4561 40.3805 26.4362 40.4318 26.4086C40.8346 26.1866 40.9752 25.9958 40.8539 25.8361C40.8152 25.7853 40.761 25.7656 40.6913 25.7772C38.706 26.1287 37.1119 26.3219 35.9089 26.3566C35.7049 26.3612 35.5926 26.4155 35.572 26.5197ZM40.428 33.6767C41.0579 32.9875 41.653 32.3099 42.2131 31.6438C42.8611 30.8736 42.7398 30.7603 41.8491 31.3038C41.2476 31.6669 40.7029 32.0959 40.2149 32.5909C38.7163 34.1139 37.0938 35.6612 36.0289 37.4479C34.56 39.9018 33.4769 42.5292 32.7799 45.3302C32.3255 47.1457 32.7683 48.6826 34.1081 49.9408C34.4825 50.2924 34.6555 50.2265 34.627 49.743C34.4024 45.8436 35.3745 42.3639 37.0861 38.7107C37.9715 36.8257 39.0855 35.1477 40.428 33.6767ZM50.992 49.8922C50.6667 51.0024 50.3801 52.0975 50.1323 53.1776C49.8587 54.3804 49.7489 55.509 49.8031 56.5636C49.8054 56.5933 49.8179 56.6216 49.839 56.6445C49.86 56.6674 49.8886 56.6839 49.9206 56.6915C49.9526 56.6992 49.9866 56.6976 50.0176 56.6871C50.0486 56.6767 50.0751 56.6577 50.0936 56.633C50.2846 56.3694 50.3892 56.0895 50.4072 55.7935C50.433 55.3356 50.686 55.0025 51.1662 54.7943C51.2101 54.7759 51.2553 54.7643 51.3017 54.7597C51.7767 54.7065 52.0104 54.895 52.0026 55.3252C51.9587 57.3489 52.1395 59.3923 52.5448 61.4554C53.1953 64.7697 54.0666 67.8574 55.1586 70.7184C55.2283 70.8988 55.3872 71.0619 55.4995 71.218C55.5309 71.2624 55.5755 71.2983 55.6282 71.3216C55.6809 71.345 55.7396 71.3549 55.7979 71.3502C55.8561 71.3456 55.9115 71.3265 55.958 71.2951C56.0044 71.2638 56.0401 71.2215 56.061 71.1729C56.4831 70.2015 55.8402 69.6291 55.6544 68.7513C55.0373 65.8163 54.6695 63.4005 54.5507 61.5039C54.3907 58.983 54.752 55.7901 55.6349 51.9253C55.7357 51.4847 55.7124 51.0787 55.7086 50.6347C55.706 50.5537 55.6685 50.4889 55.5963 50.4404C55.5601 50.4172 55.5214 50.4195 55.4801 50.4473C55.2451 50.5998 55.0789 50.8212 55.0115 51.0718C54.6811 52.3022 54.2757 53.5269 53.7956 54.7458C53.682 55.0302 53.5981 55.3263 53.5439 55.6339C53.5376 55.6676 53.5232 55.6996 53.5016 55.7277C53.48 55.7558 53.4517 55.7794 53.4188 55.7966C53.3859 55.8138 53.3492 55.8243 53.3113 55.8273C53.2733 55.8304 53.235 55.826 53.1993 55.8143C53.065 55.7704 52.985 55.6848 52.9591 55.5576C52.8842 55.1829 52.7694 54.8233 52.6145 54.4786C52.3241 53.8299 52.3628 52.9036 52.4518 52.234C52.7797 49.713 53.2599 47.2174 53.8924 44.7473C53.9543 44.4975 54.0563 44.2361 54.1983 43.9632C54.4023 43.5677 54.4978 43.1815 54.4848 42.8045C54.4668 42.2656 54.3028 42.2274 53.9931 42.69C52.8494 44.4015 51.9007 46.5062 51.1469 49.0041C51.05 49.3198 51.081 49.5869 50.992 49.8922Z" fill="#7F7A82"/>
<path d="M60.6498 6.69262C61.1635 7.04417 61.7586 7.30321 62.435 7.46974C62.8635 7.57381 63.2868 7.67096 63.7051 7.76116C63.7572 7.77199 63.8058 7.7934 63.8473 7.82377C63.8887 7.85415 63.9218 7.89269 63.9442 7.93649C63.9666 7.98028 63.9776 8.02817 63.9764 8.07654C63.9753 8.1249 63.9619 8.17247 63.9375 8.21562C63.7929 8.46776 63.6096 8.55096 63.3876 8.46539C63.2765 8.42379 63.163 8.396 63.0467 8.38219C62.7448 8.34516 62.4581 8.36944 62.1871 8.45501C61.49 8.67356 60.46 8.56257 59.7165 8.566C59.59 8.566 59.4712 8.53715 59.3602 8.47928C59.1537 8.37287 58.9355 8.28853 58.7058 8.22608C58.4863 8.16591 58.272 8.08264 58.063 7.97626C57.5105 7.69409 56.9231 7.49865 56.3011 7.38994C55.6737 7.28239 55.0618 7.50443 54.4655 7.43852C53.1256 7.29049 51.8103 7.19682 50.5195 7.1575C50.3801 7.15288 50.2548 7.11356 50.1439 7.03955C49.6972 6.74582 49.1964 6.6163 48.6414 6.65098C48.4912 6.66236 48.3398 6.64094 48.1999 6.58854C47.4228 6.29481 46.6302 6.17801 45.8222 6.23814C44.2152 6.3561 42.5694 6.32834 40.9546 6.29365C40.2261 6.27751 39.4978 6.33218 38.7822 6.45671C37.8476 6.62092 36.9131 6.725 35.9785 6.76894C34.9291 6.82098 34.0772 7.28239 33.0083 7.34137C32.5514 7.36681 32.1099 7.41885 31.684 7.49749C31.2735 7.57381 30.8437 7.63395 30.3945 7.6779C29.4909 7.76578 28.5925 7.94271 27.6992 8.20867C27.0926 8.38914 26.5711 8.65157 26.1348 8.99623C25.8818 9.19745 25.5991 9.38364 25.2867 9.55478C24.9434 9.74905 24.5793 9.8786 24.1947 9.94333C23.4538 10.0682 22.727 10.1816 22.0145 10.2833C21.3368 10.3839 20.8915 10.776 20.2216 10.9252C20.0675 10.9605 19.9333 11.0455 19.8447 11.1639C19.7561 11.2823 19.7193 11.4258 19.7414 11.567L20.3959 15.6746C20.4078 15.7535 20.4443 15.8278 20.5013 15.889C20.5583 15.9501 20.6333 15.9956 20.7178 16.0203C20.8024 16.0449 20.893 16.0476 20.9791 16.0283C21.0653 16.0088 21.1437 15.968 21.2052 15.9105C21.8015 15.3624 22.5179 14.6755 23.3582 14.4395C23.6913 14.3447 24.0205 14.2129 24.3457 14.044C24.7871 13.8128 25.2648 13.6497 25.7785 13.5548C25.8973 13.5317 25.9889 13.4751 26.0535 13.3848C26.1903 13.1975 26.3917 13.1178 26.6576 13.1455C26.8047 13.1617 26.9441 13.142 27.0758 13.0865C27.2823 12.9987 27.4656 12.8853 27.6257 12.7465C28.0246 12.4031 28.7952 12.3545 29.3102 12.3926L31.7072 12.9512C31.8363 12.9813 31.8582 13.0414 31.773 13.1316C31.6181 13.3004 31.4117 13.4427 31.1535 13.5584C29.0313 13.8914 27.0087 14.4974 25.0854 15.3762C23.3428 16.1777 21.6776 16.9583 20.2952 18.2558C20.2364 18.3112 20.1628 18.3524 20.0814 18.3753C19.9999 18.3982 19.9134 18.4023 19.8297 18.387C19.7462 18.3717 19.6682 18.3377 19.6033 18.288C19.5384 18.2383 19.4886 18.1748 19.4588 18.1031C18.8043 16.5558 18.8352 14.9113 18.3706 13.3155C18.1227 12.4597 17.9433 11.5253 17.8323 10.5123C17.8196 10.3976 17.8466 10.2821 17.9096 10.1816C17.9727 10.081 18.0687 10.0003 18.1847 9.95027C24.0992 7.38994 30.3932 5.85189 37.0667 5.33612C41.5329 4.99151 46.2173 4.97416 51.1198 5.28409C52.488 5.37198 54.0808 5.57898 55.8983 5.90509C57.4886 6.18957 59.0724 6.45208 60.6498 6.69262Z" fill="#4F4F4F"/>
<path d="M73.8431 20.8509C72.4799 19.743 70.8807 18.6906 69.0451 17.6938C66.2415 16.1708 64.224 15.0398 61.7689 14.1794C58.7561 13.0577 55.6749 12.1059 52.5254 11.3242C51.3637 11.0351 50.2251 10.8177 49.1099 10.672C47.5376 10.4673 46.0003 10.2001 44.4126 10.1065C39.6108 9.81738 34.84 10.0568 30.1001 10.8246L27.5908 11.1299C27.4488 11.1461 27.3507 11.0964 27.2965 10.9807C26.9286 10.1932 28.1794 9.77341 28.8415 9.79425C30.3776 9.84746 31.8621 9.58265 33.2948 8.99975C33.9273 8.74074 34.68 8.61815 35.5525 8.63204C37.8785 8.66441 40.273 8.67135 42.7359 8.65288C44.0796 8.64242 45.404 8.88876 46.7593 9.03448C47.2911 9.08998 47.7997 9.1883 48.2851 9.32937C49.519 9.68326 50.7505 9.88097 51.9794 9.92257C52.932 9.95379 53.7374 10.2938 54.6358 10.4812C54.8888 10.532 55.1251 10.6223 55.3445 10.7517C55.6233 10.9136 55.9163 10.9969 56.2236 11.0016C56.3578 11.0039 56.4843 11.0328 56.6031 11.0883C56.9335 11.241 57.2782 11.3462 57.637 11.404C58.0474 11.4688 58.4669 11.6098 58.8955 11.8272C61.1647 12.9721 63.7012 13.8846 66.2144 14.6131C67.2677 14.9184 68.2384 15.3336 69.1265 15.8586C70.1513 16.4668 71.1518 17.0821 72.1276 17.7042C72.4606 17.9147 72.7717 18.1506 73.0609 18.4119C73.652 18.9462 74.2394 19.5129 74.8228 20.1119C74.8907 20.1814 74.9426 20.2627 74.9745 20.3495C75.0064 20.4363 75.0173 20.5262 75.0064 20.6121C74.9955 20.6979 74.9631 20.7773 74.9117 20.8441C74.8604 20.9108 74.7915 20.963 74.7105 20.9966C74.6046 21.0405 74.3155 20.9919 73.8431 20.8509Z" fill="#4F4F4F"/>
<path d="M61.769 14.1794C64.2241 15.0398 66.2416 16.1708 69.0452 17.6937C70.8808 18.6906 72.48 19.743 73.8432 20.8508C75.4748 22.2339 76.9373 23.7419 78.2307 25.3748C78.4862 25.6962 78.8012 26.3774 79.1755 27.4182C79.4827 28.2693 79.6235 28.9816 79.5977 29.5552C79.5589 30.3879 79.528 31.2402 79.5047 32.1121C79.4931 32.5284 79.1329 32.8094 78.6915 32.8581C78.5394 32.8751 78.3856 32.8433 78.2578 32.7682C78.13 32.6932 78.0366 32.5798 77.9944 32.4487L77.3981 30.5787C77.2871 30.2318 77.0405 30.0028 76.6585 29.8918C76.5655 29.864 76.4687 29.849 76.368 29.8467C75.8698 29.8282 75.6748 30.0375 75.7833 30.4746C75.9769 31.2517 76.2945 31.9445 76.7359 32.5527C76.8831 32.7563 76.9437 32.932 76.9179 33.08C76.8766 33.3252 76.7152 33.4813 76.4339 33.5484C76.6119 33.3518 76.7127 33.1448 76.7358 32.9274C76.7488 32.7932 76.701 32.68 76.5926 32.5874C76.1821 32.2405 75.9472 31.8149 75.8878 31.3107C75.8822 31.2642 75.8652 31.2194 75.8379 31.1795C75.8106 31.1397 75.7737 31.1057 75.73 31.0801C75.6862 31.0546 75.6368 31.038 75.585 31.0317C75.5333 31.0254 75.4806 31.0294 75.4309 31.0436C75.0901 31.1384 74.8345 31.3246 74.6641 31.6022C74.6047 31.7016 74.5131 31.7675 74.3892 31.7999C73.9994 31.8947 73.7283 31.7976 73.576 31.5085C73.5269 31.4183 73.4598 31.3419 73.3746 31.2795C72.4891 30.6365 71.7598 29.9277 71.1867 29.1528C71.0447 28.9632 70.873 28.7897 70.6716 28.6324C70.4651 28.4705 70.265 28.2959 70.0714 28.1086C69.9862 28.0253 69.8817 27.9721 69.7578 27.949C69.621 27.9258 69.5538 27.8507 69.5564 27.7235C69.559 27.6009 69.5164 27.4933 69.4286 27.4008C68.4837 26.3924 67.5143 25.4175 66.5204 24.4762C66.048 24.0252 65.5071 23.6448 64.8979 23.3349C63.6626 22.7034 62.4931 22.131 61.3739 21.3123C60.6344 20.7711 59.9489 20.1813 59.1008 19.8135C58.2257 19.4365 57.335 19.0919 56.4288 18.7797C55.9926 18.6317 55.3962 18.2928 54.6398 17.7631C54.5417 17.6937 54.4836 17.6047 54.4655 17.496L54.2293 16.084C54.2121 15.9726 54.2426 15.8598 54.3145 15.7683C54.6578 15.3381 54.8567 14.8732 54.9109 14.3737C54.9625 13.9111 55.2245 13.7781 55.697 13.9747C56.696 14.3956 57.7093 14.8004 58.7368 15.1889C59.9373 15.6446 61.1107 15.7683 62.2568 15.5601C62.4273 15.5301 62.4995 15.4318 62.4737 15.2653C62.4479 15.1126 62.5202 15.0513 62.6905 15.0814C62.8119 15.1022 62.892 15.064 62.9307 14.9669C62.9875 14.8282 62.9359 14.7414 62.7757 14.7067C62.3317 14.6165 61.9961 14.4408 61.769 14.1794Z" fill="#726C73"/>
<path d="M20.6514 22.2177C24.227 19.7476 28.2659 18.1448 32.7683 17.4093L40.5634 16.9409C40.6306 16.9363 40.6653 16.964 40.668 17.0242L40.6757 17.1282C40.6783 17.1722 40.655 17.1965 40.606 17.2011C37.7611 17.4926 34.9368 17.9239 32.1331 18.4952C28.8054 19.1752 25.9037 20.3779 23.4279 22.1033C22.7773 22.5543 22.3475 23.0504 21.8673 23.6298C21.8142 23.6939 21.7438 23.7451 21.6627 23.7785C21.5816 23.8119 21.4924 23.8266 21.4031 23.821C21.3137 23.8155 21.2272 23.79 21.1514 23.7469C21.0756 23.7038 21.0128 23.6445 20.9689 23.5742C20.7572 23.2343 20.6514 22.7821 20.6514 22.2177Z" fill="#4F4F4F"/>
<path d="M74.1684 33.6733C74.393 33.9462 74.6822 34.1162 75.0358 34.1833C75.1004 34.1948 75.1404 34.2296 75.1559 34.2873C75.1637 34.3197 75.1675 34.3522 75.1675 34.3845C75.1675 34.4007 75.1752 34.4134 75.1908 34.4227C75.5677 34.6424 75.9691 34.7927 76.3951 34.8737C76.5344 34.9014 76.6519 34.9615 76.7475 35.0541C76.9385 35.2391 77.136 35.416 77.34 35.5849C78.3352 36.3967 78.9276 35.4669 79.6054 35.0055C79.7085 34.9361 79.8208 34.9222 79.9422 34.9638C80.3733 35.1165 80.7696 35.3559 81.1311 35.682C83.8392 38.0273 85.8684 40.4488 87.2185 42.9467C89.2296 46.6635 89.258 50.5109 87.3037 54.4891C87.0223 55.0603 86.737 55.5981 86.4479 56.1023L85.5031 56.8204C85.4531 56.8577 85.3923 56.8816 85.3278 56.8893C85.2633 56.897 85.1976 56.8883 85.1385 56.8639C85.0794 56.8396 85.0291 56.8008 84.9936 56.7519C84.958 56.7031 84.9386 56.6463 84.9376 56.588C84.9183 55.3008 85.1313 54.0449 84.5233 52.7509C83.7527 50.5479 82.1728 48.2304 80.496 46.4403C77.6923 43.4463 74.4162 40.716 70.8033 38.7142C70.3722 38.476 70.1992 38.1556 70.2844 37.7531C70.5296 36.6037 71.2137 36.118 72.3368 36.296C73.4468 36.4718 74.6435 36.9044 75.9265 37.5936C76.7242 38.0237 77.522 38.3742 78.3197 38.6448C78.3873 38.6671 78.4609 38.671 78.5311 38.6558C78.6012 38.6407 78.6646 38.6071 78.7131 38.5596C78.7615 38.5121 78.7927 38.4528 78.8027 38.3894C78.8126 38.3261 78.8008 38.2615 78.7689 38.2042C78.6037 37.9058 78.3752 37.656 78.0835 37.4548C77.2238 36.8628 76.3719 36.3007 75.5276 35.7687C74.8745 35.3871 74.1788 35.076 73.4404 34.8355C72.6686 34.5811 72.0593 34.2862 71.6126 33.9509C71.0911 33.5623 70.5722 33.2096 70.0559 32.8927C69.4156 32.4995 68.8129 32.0092 68.2475 31.4217C67.3801 30.5174 66.5127 29.6281 65.6452 28.7538C65.1573 28.2612 64.5429 27.8171 63.8019 27.4216C63.123 27.0585 62.4299 26.7046 61.7225 26.36L60.5258 25.3366C59.1628 23.9026 57.8913 22.8803 56.7115 22.2697C54.9121 21.3377 52.9746 20.8797 50.899 20.8959C50.4447 20.8982 50.3904 21.0312 50.7363 21.2948C51.2811 21.7112 51.8749 22.0789 52.5177 22.3981C52.6231 22.4503 52.7094 22.5287 52.7662 22.6239C52.8229 22.7191 52.8476 22.827 52.8374 22.9345C52.8272 23.042 52.7824 23.1446 52.7084 23.2297C52.6345 23.315 52.5346 23.3791 52.4209 23.4146C51.9846 23.551 51.5121 23.5268 51.0035 23.3417C50.8684 23.2947 50.7193 23.291 50.5814 23.3313C50.3259 23.4077 50.1658 23.5453 50.1013 23.7442C49.998 24.0587 50.1246 24.2507 50.4808 24.3201C51.1158 24.445 51.7239 24.4971 52.3318 24.7572C54.4307 25.6616 55.8802 26.4757 56.6806 27.1996C57.6435 28.0761 58.298 28.6209 58.6439 28.8336L61.2422 31.6854C61.2892 31.7376 61.3179 31.801 61.3246 31.8677C61.3315 31.9345 61.3161 32.0015 61.2806 32.0604C61.245 32.1194 61.1907 32.1676 61.1247 32.199C61.0586 32.2304 60.9836 32.2437 60.9093 32.237L59.7862 32.1399C58.4567 30.5856 57.1323 29.3436 55.8131 28.4138C52.9217 26.3739 49.6159 25.4476 45.8958 25.6349C45.8517 25.637 45.8076 25.6289 45.7681 25.6112C45.7286 25.5936 45.695 25.5671 45.6706 25.5344C45.6463 25.5016 45.632 25.4639 45.6295 25.425C45.6268 25.386 45.6359 25.3471 45.6558 25.3123C46.2985 24.1362 48.2038 23.6019 49.5049 23.1787C49.6378 23.1348 49.7534 23.057 49.8377 22.9551C49.922 22.8531 49.9714 22.7313 49.9796 22.6047C49.9878 22.478 49.9546 22.352 49.8841 22.2419C49.8135 22.1319 49.7087 22.0427 49.5824 21.9852L46.6625 20.6635C46.5412 20.608 46.4805 20.5189 46.4805 20.3963C46.4857 20.0517 46.6741 19.8806 47.0459 19.8829C48.6284 19.8898 50.242 19.8806 51.8864 19.8551C53.6626 19.8274 55.3278 20.1674 56.8819 20.8751C60.0289 22.309 62.9048 24.1998 65.5096 26.5474C68.0474 28.8394 70.2495 30.788 72.116 32.3932C72.7163 32.91 73.4674 33.2778 74.1684 33.6733Z" fill="#4F4F4F"/>
<path d="M60.5259 25.3366C59.6972 24.6126 58.8272 24.1732 57.9158 24.0183C57.8533 24.0078 57.7887 24.0139 57.7298 24.0357C57.671 24.0575 57.6205 24.0941 57.5845 24.1411C57.5484 24.1881 57.5283 24.2435 57.5267 24.3005C57.525 24.3575 57.5418 24.4137 57.5751 24.4623C58.1018 25.2256 58.5793 25.9067 59.0079 26.5058C59.6146 27.3569 60.2742 28.8129 60.9867 30.8735C60.6537 30.707 60.3878 30.4838 60.189 30.204C59.8818 29.7669 59.6778 29.5078 59.5771 29.4269C59.2906 29.1909 58.9796 28.9932 58.6439 28.8336C58.298 28.6209 57.6435 28.0761 56.6806 27.1996C55.8803 26.4757 54.4307 25.6616 52.3319 24.7572C51.7239 24.4971 51.1159 24.445 50.4808 24.3201C50.1246 24.2507 49.9981 24.0587 50.1013 23.7442C50.1658 23.5453 50.3259 23.4077 50.5815 23.3313C50.7193 23.291 50.8685 23.2947 51.0036 23.3417C51.5122 23.5268 51.9846 23.551 52.4209 23.4146C52.5347 23.3791 52.6346 23.315 52.7085 23.2297C52.7824 23.1446 52.8272 23.042 52.8374 22.9345C52.8477 22.827 52.8229 22.7191 52.7662 22.6239C52.7095 22.5287 52.6232 22.4503 52.5177 22.3981C51.8749 22.0789 51.2811 21.7112 50.7364 21.2948C50.3904 21.0312 50.4447 20.8982 50.899 20.8959C52.9747 20.8797 54.9122 21.3377 56.7115 22.2697C57.8914 22.8803 59.1628 23.9026 60.5259 25.3366Z" fill="#333333"/>
<path d="M31.1573 23.8378C30.6346 24.2021 30.2666 24.6775 29.6819 25.0487C29.5993 25.1019 29.5412 25.1689 29.5076 25.2499C29.4948 25.28 29.487 25.3112 29.4845 25.3436C29.4845 25.369 29.4728 25.391 29.4496 25.4094C27.9858 26.5914 26.7092 27.816 25.6198 29.0835C25.2531 29.5136 25.0144 30.0028 24.9033 30.551C24.8709 30.708 24.7762 30.8492 24.6367 30.9486C24.4973 31.048 24.3224 31.099 24.1443 31.0922C22.7619 31.0367 23.4163 29.2569 23.8888 28.6949C25.8508 26.3543 28.2813 24.4635 31.1806 23.0226C31.5626 22.833 31.693 22.9255 31.5717 23.3001C31.502 23.5153 31.3638 23.6945 31.1573 23.8378Z" fill="#4F4F4F"/>
<path d="M60.5258 25.3366L61.7225 26.3601C62.3885 27.2968 63.4611 27.7963 62.8802 29.1181C62.6363 29.6663 62.7757 30.2249 63.19 30.662C63.3243 30.736 63.3359 30.7464 63.2249 30.6932C63.7412 31.394 64.2769 31.845 64.832 32.0462C65.2063 32.1826 65.5251 32.3758 65.7885 32.6256C65.8463 32.6807 65.8854 32.7496 65.9009 32.8241C65.9164 32.8984 65.9077 32.9753 65.8759 33.0455C65.8441 33.1156 65.7905 33.1761 65.7214 33.2197C65.6524 33.2634 65.5708 33.2884 65.4864 33.2917C64.366 33.3333 63.3798 32.998 62.5279 32.2856C61.996 31.8392 61.4823 31.3685 60.9866 30.8736C60.2741 28.8129 59.6145 27.3569 59.0079 26.5058C58.5793 25.9067 58.1017 25.2256 57.575 24.4623C57.5417 24.4137 57.525 24.3575 57.5266 24.3005C57.5282 24.2435 57.5483 24.1881 57.5844 24.1411C57.6205 24.0941 57.6709 24.0575 57.7298 24.0357C57.7886 24.0139 57.8532 24.0078 57.9158 24.0183C58.8271 24.1733 59.6972 24.6126 60.5258 25.3366Z" fill="#E0E0E0"/>
<path d="M35.572 26.5197C35.5926 26.4156 35.7049 26.3612 35.9089 26.3566C37.1119 26.3219 38.706 26.1288 40.6913 25.7772C40.761 25.7656 40.8152 25.7853 40.8539 25.8362C40.9752 25.9958 40.8346 26.1866 40.4318 26.4086C40.3805 26.4362 40.3256 26.4561 40.2692 26.4676C37.068 27.1869 34.6877 28.6209 33.1284 30.7695C31.4529 33.0732 30.3119 35.7919 29.7052 38.9258C29.5116 39.925 29.5774 40.9357 29.9027 41.958C30.0215 42.3327 29.8975 42.4159 29.5309 42.2078C28.164 41.4376 27.9781 40.4627 28.3305 39.0646C29.0507 36.2059 29.7362 33.3472 31.595 31.0158C32.3772 30.0306 33.1813 29.0418 34.0075 28.0496C34.2992 27.7004 34.2088 27.5766 33.7364 27.6784C33.3182 27.7686 32.8522 27.9791 32.3385 28.3098C31.0709 29.1262 29.9001 29.9739 28.8262 30.8528C28.79 30.8831 28.7424 30.9003 28.6924 30.9009C28.6424 30.9015 28.5935 30.8857 28.5551 30.8562C28.4415 30.7661 28.4234 30.6886 28.5009 30.6238C28.5473 30.5868 28.5861 30.5463 28.617 30.5024C29.8356 28.7192 31.2774 27.1546 32.9425 25.8085C33.3401 25.4869 33.5724 25.5644 33.6396 26.0409C33.6499 26.131 33.6719 26.2224 33.7054 26.3149C33.7441 26.4214 33.8241 26.4896 33.9455 26.5197C34.4851 26.6446 35.0273 26.6446 35.572 26.5197Z" fill="#4F4F4F"/>
<path d="M61.7225 26.3601C62.4299 26.7047 63.123 27.0586 63.802 27.4217C64.5429 27.8172 65.1573 28.2612 65.6452 28.7539C66.5127 29.6282 67.3801 30.5175 68.2475 31.4218C68.8129 32.0093 69.4157 32.4996 70.0559 32.8928C70.5723 33.2096 71.0912 33.5624 71.6126 33.9509C72.0593 34.2863 72.6686 34.5812 73.4405 34.8356C74.1788 35.0761 74.8746 35.3872 75.5277 35.7688C73.9323 35.2253 72.4581 34.8853 71.1054 34.7489C70.5787 34.6934 70.0753 35.0263 69.6067 35.127C68.2204 35.4254 66.9502 35.9515 65.7963 36.7055C65.693 36.7726 65.6207 36.8605 65.5794 36.9692C65.5226 37.1172 65.493 37.2687 65.4903 37.4237C65.4887 37.4994 65.4694 37.574 65.4339 37.6427C65.3984 37.7114 65.3475 37.7729 65.2841 37.8231C65.2208 37.8733 65.1466 37.9112 65.0661 37.9344C64.9856 37.9576 64.9006 37.9656 64.8165 37.9579C63.6496 37.8538 62.8558 38.1915 62.435 38.971C62.4013 39.0343 62.3848 39.1038 62.3869 39.1739C62.389 39.244 62.4096 39.3126 62.447 39.3743C62.4844 39.4358 62.5375 39.4886 62.6021 39.5282C62.6666 39.5679 62.7408 39.5933 62.8183 39.6024L64.5532 39.8036L62.7757 39.8799C62.6549 39.8852 62.5347 39.8615 62.4275 39.8112C62.3202 39.761 62.2298 39.6862 62.1656 39.5944C62.1014 39.5025 62.0655 39.3971 62.0618 39.2887C62.0581 39.1803 62.0867 39.0731 62.1445 38.9779C62.3485 38.6495 62.4827 38.3245 62.5473 38.0031C62.5581 37.9485 62.5544 37.8925 62.5366 37.8394C62.5188 37.7864 62.4874 37.7378 62.4448 37.6977C62.4022 37.6575 62.3497 37.6269 62.2915 37.6082C62.2333 37.5896 62.1711 37.5834 62.1097 37.5902C61.676 37.6388 61.3172 37.626 61.0332 37.5521C61.4643 37.2953 61.9148 37.1265 62.3846 37.0455C62.4635 37.0321 62.5377 37.0016 62.6006 36.9568C62.6635 36.912 62.7133 36.8542 62.7457 36.7882C62.7781 36.7223 62.7921 36.6504 62.7865 36.5786C62.781 36.5067 62.756 36.4372 62.7138 36.376C62.5511 36.1366 62.1988 35.8763 61.8928 35.8035C60.0185 35.3595 58.5122 35.7862 56.7231 36.2857C56.4107 36.3736 56.3463 36.2961 56.5295 36.0533C57.4511 34.8298 58.7355 34.1822 60.3826 34.1105C60.46 34.1059 60.5311 34.0897 60.5956 34.0619C60.6988 34.0203 60.7634 33.9856 60.7891 33.9579C60.8903 33.8529 60.9469 33.7191 60.949 33.5797C60.9512 33.4403 60.8987 33.304 60.8008 33.1946C60.4962 32.857 60.158 32.5054 59.7863 32.1399L60.9093 32.2371C60.9836 32.2437 61.0586 32.2305 61.1247 32.199C61.1907 32.1677 61.245 32.1194 61.2806 32.0605C61.3162 32.0016 61.3315 31.9346 61.3247 31.8678C61.3179 31.8011 61.2893 31.7377 61.2423 31.6854L58.6439 28.8337C58.9796 28.9933 59.2905 29.191 59.5771 29.427C59.6778 29.5079 59.8818 29.767 60.189 30.2041C60.3877 30.4839 60.6537 30.7071 60.9867 30.8736C61.4824 31.3686 61.9961 31.8393 62.528 32.2857C63.3798 32.998 64.366 33.3334 65.4865 33.2918C65.5709 33.2884 65.6524 33.2634 65.7215 33.2198C65.7905 33.1761 65.8442 33.1156 65.8759 33.0455C65.9078 32.9753 65.9164 32.8985 65.9009 32.8241C65.8854 32.7497 65.8464 32.6808 65.7885 32.6257C65.5252 32.3758 65.2063 32.1827 64.832 32.0463C64.277 31.8451 63.7413 31.3941 63.2249 30.6932C63.5244 30.8297 63.7826 30.9928 63.9995 31.1824C64.1827 31.3443 64.3519 31.4496 64.5068 31.4981C64.6849 31.5536 64.8772 31.5803 65.0837 31.5779C65.5432 31.5779 65.7214 31.3779 65.6181 30.9777C65.3729 30.0202 64.7275 29.2489 63.6819 28.6637C63.5761 28.6059 63.5077 28.6302 63.4766 28.7366C63.4199 28.9216 63.3127 29.0835 63.1552 29.2222C63.0757 29.2924 63.0112 29.3749 62.9658 29.4646C62.9206 29.5542 62.8954 29.649 62.8921 29.7429C62.8889 29.8368 62.9075 29.9275 62.9468 30.0093C62.9861 30.0912 63.0453 30.1622 63.1204 30.218C63.265 30.3244 63.2883 30.4724 63.1901 30.662C62.7757 30.2249 62.6363 29.6664 62.8803 29.1182C63.4611 27.7964 62.3886 27.2968 61.7225 26.3601ZM64.8746 34.5372C64.8295 34.4902 64.7744 34.4515 64.7127 34.4236C64.6509 34.3955 64.5835 34.3788 64.5144 34.3741L63.5192 34.3047C63.4175 34.2967 63.3154 34.3155 63.2254 34.3585C63.1353 34.4015 63.0611 34.4671 63.0118 34.5472C62.9626 34.6274 62.9404 34.7186 62.948 34.8098C62.9556 34.9011 62.9927 34.9883 63.0546 35.0611L63.7478 35.8868C63.8226 35.9757 63.93 36.0381 64.0513 36.0629C64.1724 36.0876 64.2995 36.0732 64.4099 36.0221L65.1263 35.6925C65.1974 35.6599 65.2592 35.6133 65.3073 35.5562C65.3553 35.4992 65.3881 35.433 65.4035 35.3628C65.4188 35.2926 65.416 35.2203 65.3955 35.1512C65.375 35.0821 65.3372 35.018 65.2851 34.9639L64.8746 34.5372Z" fill="#4F4F4F"/>
<path d="M63.2249 30.6932C63.3359 30.7464 63.3243 30.7361 63.19 30.662C63.2882 30.4724 63.2649 30.3244 63.1203 30.218C63.0453 30.1622 62.9861 30.0912 62.9467 30.0093C62.9074 29.9275 62.8888 29.8368 62.8921 29.7429C62.8954 29.649 62.9206 29.5542 62.9658 29.4646C63.0111 29.3749 63.0756 29.2924 63.1552 29.2222C63.3127 29.0835 63.4198 28.9216 63.4766 28.7366C63.5076 28.6302 63.576 28.6059 63.6819 28.6637C64.7274 29.2489 65.3729 30.0202 65.6181 30.9777C65.7213 31.3779 65.5432 31.5779 65.0837 31.5779C64.8771 31.5803 64.6848 31.5536 64.5067 31.4981C64.3518 31.4496 64.1827 31.3443 63.9994 31.1824C63.7826 30.9928 63.5244 30.8297 63.2249 30.6932Z" fill="#4F4F4F"/>
<path d="M40.4279 33.6768C39.0855 35.1478 37.9715 36.8258 37.0861 38.7108C35.3744 42.364 34.4024 45.8437 34.627 49.7431C34.6555 50.2266 34.4825 50.2924 34.1081 49.9409C32.7682 48.6827 32.3255 47.1458 32.7799 45.3302C33.4769 42.5293 34.56 39.9019 36.0288 37.448C37.0937 35.6613 38.7163 34.114 40.2149 32.5909C40.7029 32.096 41.2476 31.667 41.8491 31.3038C42.7397 30.7603 42.8611 30.8737 42.2131 31.6438C41.6529 32.3099 41.0579 32.9876 40.4279 33.6768Z" fill="#4F4F4F"/>
<path d="M64.8745 34.5371L65.2849 34.9638C65.3371 35.0179 65.3749 35.082 65.3954 35.1511C65.4159 35.2202 65.4187 35.2925 65.4034 35.3627C65.388 35.4329 65.3552 35.4991 65.3072 35.5561C65.2591 35.6133 65.1973 35.6598 65.1262 35.6924L64.4098 36.022C64.2994 36.0731 64.1723 36.0875 64.0512 36.0628C63.9299 36.038 63.8225 35.9756 63.7477 35.8867L63.0545 35.061C62.9926 34.9883 62.9555 34.901 62.9479 34.8098C62.9403 34.7185 62.9625 34.6273 63.0117 34.5472C63.061 34.4671 63.1352 34.4014 63.2253 34.3584C63.3153 34.3154 63.4174 34.2967 63.5191 34.3047L64.5143 34.3741C64.5834 34.3787 64.6508 34.3955 64.7126 34.4235C64.7743 34.4515 64.8294 34.4901 64.8745 34.5371Z" fill="#333333"/>
<path d="M75.5277 35.7688C76.3719 36.3008 77.2238 36.8628 78.0835 37.4549C78.3752 37.6561 78.6037 37.9059 78.7689 38.2043C78.8008 38.2616 78.8126 38.3261 78.8027 38.3895C78.7927 38.4529 78.7615 38.5122 78.7131 38.5596C78.6646 38.6072 78.6012 38.6407 78.5311 38.6558C78.4609 38.671 78.3873 38.6672 78.3197 38.6449C77.522 38.3743 76.7242 38.0238 75.9265 37.5937C74.6435 36.9044 73.4468 36.4719 72.3368 36.2961C71.2138 36.118 70.5296 36.6037 70.2844 37.7532C70.1992 38.1557 70.3722 38.476 70.8033 38.7143C74.4162 40.716 77.6923 43.4463 80.496 46.4404C82.1728 48.2305 83.7527 50.548 84.5233 52.751C84.531 53.8091 84.7983 54.7736 84.1631 55.7381C84.0289 55.9439 83.9089 55.9381 83.803 55.7207C83.4364 54.9852 83.1693 54.2555 83.0014 53.5316C82.9756 53.4159 82.9046 53.3211 82.7885 53.2471C82.6878 53.1823 82.6194 53.0968 82.5832 52.9904C82.4593 52.6481 82.3328 52.3312 82.2037 52.0397C81.8397 51.2175 81.104 50.4647 80.5889 49.698C80.2379 49.1753 79.8583 48.7278 79.4505 48.3554C77.8833 46.9214 76.306 45.5014 74.7183 44.0951C73.6909 43.1862 72.1522 42.3061 70.1024 41.455C68.3959 40.5321 66.5462 39.9817 64.5532 39.8036L62.8183 39.6024C62.7408 39.5933 62.6666 39.5679 62.6021 39.5282C62.5375 39.4886 62.4844 39.4358 62.447 39.3743C62.4096 39.3126 62.389 39.244 62.3869 39.1739C62.3848 39.1038 62.4013 39.0343 62.435 38.971C62.8558 38.1915 63.6496 37.8538 64.8165 37.9579C64.9006 37.9656 64.9856 37.9576 65.0661 37.9344C65.1465 37.9112 65.2208 37.8733 65.2841 37.8231C65.3474 37.7729 65.3984 37.7114 65.4339 37.6427C65.4694 37.574 65.4887 37.4994 65.4903 37.4237C65.4929 37.2687 65.5226 37.1172 65.5794 36.9692C65.6207 36.8605 65.693 36.7726 65.7963 36.7055C66.9502 35.9515 68.2204 35.4254 69.6067 35.127C70.0752 35.0263 70.5787 34.6934 71.1054 34.7489C72.4581 34.8853 73.9323 35.2253 75.5277 35.7688Z" fill="#7F7A82"/>
<path d="M86.4479 56.1023C86.737 55.5981 87.0222 55.0603 87.3037 54.4891C89.258 50.5109 89.2295 46.6635 87.2185 42.9467C85.8683 40.4488 83.8391 38.0273 81.131 35.682C81.0768 35.3929 81.0716 35.1396 81.1155 34.9222C81.1388 34.8043 81.2162 34.7545 81.3478 34.7731C82.3315 34.9083 82.5948 35.6473 83.164 36.0567C85.7766 37.9325 87.8174 40.406 89.2863 43.4775C91.2535 47.592 91.118 51.4661 88.8797 55.0996C88.335 55.9855 87.6148 56.7441 86.7189 57.3755C86.4968 57.5327 86.3742 57.6126 86.3511 57.6149C85.6514 57.6981 85.5352 57.5039 86.0025 57.032C86.209 56.8239 86.3575 56.5139 86.4479 56.1023Z" fill="#828282"/>
<path d="M61.0331 37.552C61.3171 37.626 61.6759 37.6387 62.1096 37.5901C62.171 37.5833 62.2332 37.5895 62.2914 37.6082C62.3496 37.6268 62.4022 37.6574 62.4447 37.6976C62.4873 37.7378 62.5188 37.7863 62.5366 37.8394C62.5544 37.8924 62.558 37.9484 62.5472 38.003C62.4826 38.3244 62.3484 38.6494 62.1445 38.9778C62.0866 39.073 62.0581 39.1802 62.0617 39.2886C62.0655 39.397 62.1013 39.5024 62.1655 39.5943C62.2298 39.6862 62.3202 39.7609 62.4275 39.8111C62.5346 39.8614 62.6549 39.8851 62.7757 39.8799L64.5532 39.8035C66.5461 39.9816 68.3959 40.5321 70.1024 41.4549C71.055 42.1696 72.0038 42.8576 72.9486 43.5192C74.5879 44.6663 75.8154 45.7013 76.6313 46.6241C76.861 46.8832 77.0715 47.1572 77.2625 47.4464C77.4561 47.7424 77.6278 48.0362 77.7775 48.3276C77.953 48.6676 78.2022 48.9752 78.5249 49.2504C78.6333 49.3429 78.6617 49.4516 78.61 49.5766C78.4578 49.942 78.1622 50.0819 77.7233 49.9963C77.0185 49.8576 76.2827 49.6471 75.516 49.3649C74.7648 49.0897 73.9954 48.8595 73.2081 48.6745C69.0361 47.6985 64.7971 47.3631 60.491 47.6684C60.3953 47.6759 60.3038 47.7068 60.2266 47.7576C60.1493 47.8084 60.0895 47.8771 60.0534 47.9563C59.8933 48.3033 59.9346 48.5855 60.1773 48.8029C60.1567 49.1266 59.679 49.3441 58.7445 49.4551C58.4579 49.5522 58.1752 49.573 57.8964 49.5176C57.7673 49.4898 57.6924 49.4181 57.6718 49.3024C57.2846 47.0405 57.6047 44.8976 58.6322 42.8738C58.6347 42.867 58.929 42.4621 59.5151 41.6596C59.8972 41.1346 60.0753 40.5275 60.0495 39.8383C60.0159 38.9085 60.3438 38.1463 61.0331 37.552Z" fill="#4F4F4F"/>
<path d="M50.992 49.8922C51.081 49.5869 51.05 49.3198 51.1469 49.0041C51.9007 46.5062 52.8494 44.4015 53.9931 42.69C54.3028 42.2274 54.4668 42.2656 54.4848 42.8045C54.4978 43.1815 54.4023 43.5677 54.1983 43.9632C54.0563 44.2361 53.9544 44.4975 53.8924 44.7473C53.2599 47.2174 52.7797 49.713 52.4518 52.234C52.3628 52.9036 52.3241 53.8299 52.6145 54.4786C52.7694 54.8233 52.8842 55.1829 52.9591 55.5576C52.985 55.6848 53.065 55.7704 53.1993 55.8143C53.235 55.826 53.2733 55.8304 53.3113 55.8273C53.3492 55.8243 53.3859 55.8138 53.4188 55.7966C53.4517 55.7794 53.48 55.7558 53.5016 55.7277C53.5232 55.6996 53.5376 55.6676 53.5439 55.6339C53.5981 55.3263 53.682 55.0302 53.7956 54.7458C54.2757 53.5269 54.6811 52.3022 55.0115 51.0718C55.0789 50.8212 55.2451 50.5998 55.4801 50.4473C55.5214 50.4195 55.5601 50.4172 55.5963 50.4404C55.6685 50.4889 55.706 50.5537 55.7086 50.6346C55.7124 51.0787 55.7357 51.4847 55.635 51.9253C54.752 55.7901 54.3907 58.983 54.5507 61.5039C54.6695 63.4005 55.0373 65.8163 55.6544 68.7513C55.8402 69.629 56.4831 70.2015 56.061 71.1729C56.0401 71.2215 56.0044 71.2638 55.958 71.2951C55.9115 71.3265 55.8561 71.3456 55.7979 71.3502C55.7396 71.3549 55.6809 71.345 55.6282 71.3216C55.5755 71.2983 55.531 71.2624 55.4995 71.218C55.3872 71.0619 55.2284 70.8988 55.1587 70.7184C54.0667 67.8574 53.1953 64.7697 52.5448 61.4554C52.1395 59.3923 51.9587 57.3489 52.0026 55.3252C52.0104 54.8949 51.7767 54.7065 51.3017 54.7597C51.2553 54.7643 51.2101 54.7759 51.1662 54.7943C50.686 55.0025 50.433 55.3356 50.4072 55.7935C50.3892 56.0895 50.2846 56.3694 50.0936 56.633C50.0752 56.6577 50.0486 56.6767 50.0176 56.6871C49.9866 56.6976 49.9526 56.6992 49.9206 56.6915C49.8886 56.6839 49.86 56.6674 49.839 56.6445C49.8179 56.6216 49.8054 56.5933 49.8031 56.5636C49.7489 55.509 49.8587 54.3804 50.1323 53.1776C50.3801 52.0975 50.6667 51.0024 50.992 49.8922Z" fill="#4F4F4F"/>
<path d="M42.914 47.5331C41.4076 51.1932 40.4898 54.8255 41.5548 58.7285C41.7948 59.6004 41.5664 59.7126 40.8693 59.065C39.9051 58.163 38.6853 56.5983 38.937 55.2626C39.5024 52.2536 40.5944 49.4377 42.2131 46.8149C42.3267 46.7525 42.4145 46.6622 42.4764 46.5443C42.5332 46.4356 42.6042 46.3408 42.6894 46.2598C42.7849 46.1674 42.9023 46.1176 43.0417 46.1106C43.1915 46.1014 43.2496 46.1627 43.216 46.2945L42.914 47.5331Z" fill="#4F4F4F"/>
<path d="M60.1773 48.8029L61.8541 49.2573C62.0348 49.3059 62.0955 49.4111 62.0361 49.573L61.7573 50.3397C61.7237 50.43 61.7095 50.5212 61.7147 50.6138C61.787 51.8119 61.7315 53.0515 61.5481 54.3328C61.0577 57.7675 60.9427 61.2865 61.2036 64.8899C61.2733 65.8925 61.463 66.8952 61.4165 67.9186C61.4114 68.0366 61.4565 68.136 61.552 68.2169C61.6047 68.262 61.6388 68.3219 61.6488 68.3869C61.9379 70.679 62.7305 72.8693 64.0265 74.9578C64.2705 75.3533 64.6229 75.617 65.1418 75.3637C65.6413 75.1209 65.6568 74.6178 66.1834 74.3576C66.3693 74.2674 66.5488 74.1645 66.7218 74.0488C68.1907 73.0775 69.5254 71.9916 70.7259 70.7912C70.9297 70.5876 71.1182 70.3656 71.2912 70.1251C71.3609 70.0279 71.4487 69.947 71.5545 69.8822C71.6862 69.8036 71.7637 69.6995 71.7868 69.57C71.8449 69.2647 72.1044 68.9733 72.3213 68.7374C72.4814 68.5639 72.5975 68.38 72.6697 68.1857C72.977 67.3716 73.4585 66.5621 74.1142 65.7573C74.1865 65.6694 74.2795 65.6104 74.393 65.5803C74.9351 65.437 75.4811 65.3687 76.031 65.3757C76.1395 65.3779 76.2389 65.3514 76.3293 65.2958C76.6829 65.0853 77.0856 65.0079 77.5374 65.0634C77.5604 65.0661 77.5823 65.0736 77.6013 65.0855C77.6202 65.0974 77.6357 65.1132 77.6464 65.1316C77.6571 65.1501 77.6626 65.1705 77.6625 65.1913C77.6624 65.2119 77.6566 65.2324 77.6459 65.2508C77.2302 65.9145 77.0211 66.3806 77.0185 66.6489C74.4963 70.0418 71.4138 72.993 67.7712 75.5025C67.4407 75.7291 67.0651 75.9523 66.6443 76.172C66.2363 76.3872 65.8479 76.5953 65.4787 76.7965L64.4641 77.3829C64.347 77.4508 64.205 77.4751 64.0682 77.4504C63.9315 77.4258 63.8109 77.3542 63.7322 77.251C62.3976 75.4978 61.3842 73.5377 60.6923 71.3706C59.3098 67.034 59.093 62.6731 59.4106 58.1179C59.5848 55.6338 60.1928 53.1013 60.7388 50.6763C60.7878 50.4612 60.775 50.2045 60.7001 49.9061C60.6866 49.8524 60.6611 49.8016 60.6252 49.7569C60.5892 49.7122 60.5436 49.6744 60.491 49.6459C60.0108 49.3891 59.4286 49.3255 58.7445 49.4551C59.679 49.3441 60.1567 49.1266 60.1773 48.8029Z" fill="#4F4F4F"/>
<path d="M46.6083 65.7261C46.3966 65.5318 46.0894 65.1976 45.6866 64.7235C45.2297 64.1823 45.0038 63.604 45.009 62.9888C45.0296 60.2921 45.4427 57.6739 46.2481 55.1343C46.4469 54.7296 46.6199 54.4208 46.7671 54.208C47.0458 53.8079 47.1852 53.8437 47.1852 54.3156C47.1852 55.3333 47.1143 56.3972 46.9723 57.5073C46.7438 59.2698 46.7089 61.1466 47.011 62.8362C47.215 63.9833 47.4835 65.1386 47.8164 66.302C47.8655 66.4731 47.7984 66.5263 47.6151 66.4616C47.2511 66.3343 46.9155 66.0892 46.6083 65.7261Z" fill="#4F4F4F"/>
</g>
<defs>
<filter id="filter0_d_5_533" x="0" y="0" width="94.6666" height="93" filterUnits="userSpaceOnUse" color-interpolation-filters="sRGB">
<feFlood flood-opacity="0" result="BackgroundImageFix"/>
<feColorMatrix in="SourceAlpha" type="matrix" values="0 0 0 0 0 0 0 0 0 0 0 0 0 0 0 0 0 0 127 0" result="hardAlpha"/>
<feOffset dy="4"/>
<feGaussianBlur stdDeviation="2"/>
<feComposite in2="hardAlpha" operator="out"/>
<feColorMatrix type="matrix" values="0 0 0 0 0 0 0 0 0 0 0 0 0 0 0 0 0 0 0.25 0"/>
<feBlend mode="normal" in2="BackgroundImageFix" result="effect1_dropShadow_5_533"/>
<feBlend mode="normal" in="SourceGraphic" in2="effect1_dropShadow_5_533" result="shape"/>
</filter>
<clipPath id="clip0_5_533">
<rect width="86.6667" height="85" fill="white" transform="translate(4)"/>
</clipPath>
</defs>
</svg>
